<?xml version="1.0" encoding="UTF-8" standalone="no"?>

<svg
   width="30px"
   height="30px"
   viewBox="0 0 71.514229 64.035362"
   version="1.1"
   id="svg8"
   xmlns="http://www.w3.org/2000/svg"
   xmlns:svg="http://www.w3.org/2000/svg"
   xmlns:rdf="http://www.w3.org/1999/02/22-rdf-syntax-ns#"
   xmlns:cc="http://creativecommons.org/ns#"
   xmlns:dc="http://purl.org/dc/elements/1.1/">
  <defs
     id="defs2" />
  <metadata
     id="metadata5">
    <rdf:RDF>
      <cc:Work
         rdf:about="">
        <dc:format>image/svg+xml</dc:format>
        <dc:type
           rdf:resource="http://purl.org/dc/dcmitype/StillImage" />
        <dc:title />
      </cc:Work>
    </rdf:RDF>
  </metadata>
  <g
     id="layer1"
     transform="translate(-22.63276,-41.086058)">
    <path
       style="fill:#FFFFFF;stroke-width:0.352778"
       d="m 55.56249,104.65972 c -2.36027,-0.83292 -4.35296,-2.73474 -6.66573,-6.361794 -1.27098,-1.99325 -1.51908,-2.17529 -2.78609,-2.04438 -1.73903,0.1797 -5.92983,-3.52559 -7.39237,-6.53593 -0.70984,-1.46107 -0.80908,-1.54188 -0.9824,-0.7999 -0.14282,0.61141 -0.47562,0.8532 -1.28391,0.93279 -0.898468,0.0885 -1.286569,-0.12952 -2.19816,-1.23472 -1.716391,-2.08092 -3.568091,-7.76926 -4.685926,-14.39494 l -0.476143,-2.82223 -0.859284,1.51136 c -2.479252,4.36065 -3.642075,-2.57774 -1.908733,-11.38913 1.020331,-5.18683 1.096821,-4.66707 -1.115501,-7.58004 -1.103235,-1.45264 -2.158056,-3.04014 -2.344048,-3.52778 -0.945081,-2.47787 1.117831,-6.10758 4.123596,-7.25549 3.056654,-1.16735 7.494165,-0.33871 10.795719,2.01594 0.4545,0.32414 0.98023,0.14727 2.67914,-0.90135 3.60034,-2.22226 6.78479,-3.14969 10.86651,-3.16473 2.90466,-0.0107 3.84211,0.1263 5.30734,0.77566 l 1.77956,0.78866 1.74822,-0.78902 c 1.40959,-0.63619 2.39737,-0.79049 5.0996,-0.79657 3.98303,-0.009 7.12396,0.87271 10.8326,3.04075 2.08756,1.22038 2.48754,1.34321 3.10213,0.95269 2.84677,-1.8089 3.90338,-2.19831 6.39956,-2.3585 3.2468,-0.20837 5.22673,0.47264 6.96363,2.39517 1.3242,1.46574 1.83989,3.17996 1.46716,4.87703 -0.12699,0.57815 -1.09163,2.20168 -2.14364,3.60784 -1.05202,1.40616 -2.00254,2.83952 -2.11227,3.18524 -0.10973,0.34572 0.0398,1.55242 0.3322,2.68154 1.28677,4.96826 1.60623,13.13789 0.56291,14.39503 -0.66684,0.80348 -0.96337,0.66914 -2.00826,-0.90978 l -0.95566,-1.4441 -0.77075,4.17813 c -1.7527,9.50106 -4.10847,14.4733 -6.71406,14.17107 -0.70111,-0.0813 -1.04961,-0.35773 -1.18581,-0.94052 -0.17341,-0.74201 -0.27261,-0.66124 -0.98249,0.7999 -1.53188,3.15306 -5.86721,6.89227 -7.41976,6.39951 -0.81056,-0.25726 -1.47365,0.3932 -3.29987,3.23702 -3.01131,4.689264 -7.62351,6.768484 -11.76901,5.305574 z M 55.419,101.62123 c -1.15597,-1.13111 -2.66151,-2.483524 -3.34566,-3.005344 -1.53475,-1.17061 -2.05067,-2.83882 -1.76215,-5.69782 0.24222,-2.40018 -0.54485,-7.25496 -1.65892,-10.23259 -0.70022,-1.87149 -0.7002,-1.8788 0.0133,-6.75657 0.49841,-3.40745 0.88263,-5.00661 1.27146,-5.29191 0.60047,-0.44059 4.32764,-1.17524 6.00717,-1.18405 0.56619,-0.003 1.26756,-0.15929 1.5586,-0.34738 0.3786,-0.24467 -10e-4,-0.34351 -1.33424,-0.34738 -3.5709,-0.0103 -5.35434,-1.41393 -6.1149,-4.81246 -0.67544,-3.01819 -1.05527,-1.60822 -1.57174,5.8345 -0.25027,3.60651 -0.71486,7.69915 -1.03243,9.09476 -0.57404,2.52269 -0.5722,2.5519 0.31542,5.01258 0.93792,2.60013 1.624,6.94708 1.624,10.28947 0,1.70057 0.19289,2.28146 1.35413,4.07812 1.54984,2.397914 3.94551,4.591944 5.51101,5.047174 0.5898,0.17151 1.1161,0.32615 1.16955,0.34364 0.0534,0.0175 -0.84861,-0.89364 -2.00457,-2.02474 z m 1.90738,-3.940664 c 0.17359,0.28087 0.36714,0.28087 0.70556,0 0.34115,-0.28313 0.53659,-0.27339 0.728,0.0363 0.18915,0.30607 0.39332,0.24327 0.73696,-0.22668 0.26142,-0.35752 0.47532,-0.46228 0.47532,-0.23281 0,0.57703 2.10094,0.31064 2.49815,-0.31675 0.2228,-0.3519 0.31483,-0.36744 0.31867,-0.0538 0.008,0.63541 1.425,0.54263 2.18248,-0.14287 0.7192,-0.65086 0.86328,-2.58272 0.27466,-3.68257 -0.47014,-0.87846 -0.89193,-0.6222 -1.15696,0.70292 -0.20136,1.00682 -1.24269,1.6967 -2.26492,1.50052 -0.24253,-0.0465 -0.44097,0.0662 -0.44097,0.25059 0,0.18437 -0.3175,0.25219 -0.70556,0.15071 -0.41008,-0.10724 -0.70555,-0.0108 -0.70555,0.23024 0,0.24882 -0.17642,0.30056 -0.44098,0.12934 -0.24253,-0.15698 -0.99659,-0.30428 -1.67569,-0.32734 -1.73275,-0.0588 -3.78374,-0.38576 -4.25763,-0.67864 -0.22026,-0.13613 -0.63896,-0.81829 -0.93045,-1.51592 -0.50121,-1.19956 -0.55669,-1.23186 -1.02233,-0.59506 -0.67079,0.91736 -0.62062,2.98705 0.0915,3.77391 0.65081,0.71915 2.23837,0.87868 2.23837,0.22494 0,-0.23112 0.22679,-0.11205 0.50398,0.26458 0.49458,0.67203 0.50883,0.67223 0.76502,0.0108 0.24517,-0.63298 0.2791,-0.62517 0.55789,0.12846 0.23641,0.63908 0.39745,0.71894 0.79107,0.39226 0.3551,-0.29471 0.56157,-0.30122 0.73343,-0.0231 z m -10.05855,-9.525 c -0.21903,-1.26118 -0.78609,-3.26349 -1.26013,-4.44957 l -0.86188,-2.15651 0.71319,-3.00291 c 0.4616,-1.94362 0.83892,-5.35178 1.06961,-9.66155 0.19604,-3.66224 0.44756,-7.07497 0.55894,-7.58383 0.19192,-0.87682 0.11318,-0.93777 -1.50572,-1.16549 -2.54947,-0.35863 -4.00129,-0.89892 -4.00129,-1.48908 0,-0.79777 1.98626,-3.5168 3.30233,-4.52061 1.80891,-1.37973 3.0056,-1.46499 5.41099,-0.38552 1.77986,0.79876 2.23773,0.87801 3.12428,0.54081 0.59968,-0.22809 2.90284,-0.37148 5.44851,-0.3392 3.33656,0.0423 4.79085,-0.0856 5.97583,-0.52548 0.98318,-0.36499 3.90754,-0.7469 7.85661,-1.02603 3.45977,-0.24455 6.46067,-0.6148 6.66865,-0.82279 0.26903,-0.26903 0.25881,-0.60117 -0.0354,-1.15094 -0.33929,-0.63396 -0.30181,-0.89628 0.20869,-1.46037 0.90976,-1.00528 2.79234,-2.09708 5.22771,-3.03181 l 2.14375,-0.8228 -2.17001,0.11558 c -1.53031,0.0815 -2.80075,0.4282 -4.30963,1.17607 l -2.13962,1.06049 -3.45148,-1.70749 c -5.60264,-2.7717 -11.21272,-3.44941 -15.23037,-1.83986 -1.47423,0.5906 -1.62619,0.59084 -3.175,0.005 -4.31665,-1.63313 -10.18138,-0.86693 -15.83675,2.06899 l -2.93019,1.52117 -1.922704,-1.04138 c -3.596844,-1.94813 -7.272319,-1.69945 -9.317996,0.63044 -1.655092,1.88505 -1.390699,4.63176 0.732918,7.6141 l 0.769454,1.0806 0.65589,-0.83648 c 0.515778,-0.65779 0.610719,-1.19006 0.444436,-2.49166 -0.274335,-2.1474 0.02107,-2.99569 1.267706,-3.64035 1.626448,-0.84107 4.931407,-0.52437 4.931407,0.47255 0,0.14711 -0.941621,1.23575 -2.09249,2.4192 -3.652514,3.75591 -5.605341,8.72978 -5.930013,15.10378 l -0.197664,3.88056 0.966443,-1.14653 c 1.833477,-2.17512 2.124313,-1.64359 2.461091,4.49792 0.209105,3.81326 0.866425,6.3521 2.389633,9.22973 1.098346,2.07499 2.757014,3.90716 2.981959,3.29388 0.33201,-0.90518 1.56338,-2.64583 1.8717,-2.64583 0.1894,0 0.52378,0.67468 0.74307,1.4993 0.55561,2.08933 2.27781,5.2296 3.74876,6.8355 1.15572,1.26176 1.26995,1.3096 1.7053,0.71422 0.5327,-0.72852 1.28922,-0.47226 2.46866,0.83621 l 0.70161,0.77836 0.10873,-2.0686 c 0.0598,-1.13773 -0.0705,-3.10048 -0.28951,-4.36166 z m 4.95438,-7.24532 c 0.24764,-0.2984 0.5612,-1.92559 0.69678,-3.61597 0.13559,-1.69039 0.2699,-2.875 0.29849,-2.63246 0.0942,0.79943 1.09233,0.45897 1.32058,-0.45046 0.15784,-0.62885 0.34514,-0.79066 0.63592,-0.54934 0.47251,0.39215 1.07254,0.0953 1.3661,-0.6759 0.16045,-0.42149 0.2071,-0.40355 0.22929,0.0882 0.0168,0.37289 0.30724,0.61736 0.7334,0.61736 0.51974,0 0.70556,-0.23519 0.70556,-0.89301 0,-0.99863 -0.9703,-1.58413 -1.41983,-0.85677 -0.24143,0.39063 -0.3864,0.38992 -0.86129,-0.004 -0.41317,-0.3429 -0.67763,-0.36728 -0.95671,-0.0882 -0.27909,0.27909 -0.5266,0.2448 -0.89543,-0.12403 -0.59411,-0.59411 -1.14881,-0.36499 -1.18077,0.48772 -0.0162,0.43221 -0.11025,0.37789 -0.34141,-0.19721 -0.31521,-0.78419 -1.15628,-1.00055 -2.25321,-0.57962 -0.65435,0.2511 -0.71648,2.10225 -0.20318,6.05436 0.47038,3.62171 1.10742,4.64648 2.12571,3.41952 z m 13.70956,-0.4276 c 0.5497,-1.33084 1.09149,-4.82185 1.09396,-7.04883 0.002,-1.66351 -0.0829,-1.86668 -0.85985,-2.06169 -0.47405,-0.11897 -1.06936,-0.0823 -1.32292,0.0815 -0.25356,0.16379 -0.85012,0.29779 -1.3257,0.29779 -0.68142,0 -0.91226,0.22976 -1.0892,1.08412 -0.30556,1.47533 0.20216,2.84273 0.85451,2.30133 0.39794,-0.33026 0.50765,0.10703 0.63485,2.53055 0.0846,1.6114 0.27275,3.12232 0.41816,3.35761 0.44724,0.72365 1.17548,0.4762 1.59619,-0.54236 z m -2.0233,-6.79097 c 0,-0.48507 0.0801,-0.68351 0.17794,-0.44097 0.0979,0.24253 0.0979,0.63941 0,0.88194 -0.0979,0.24254 -0.17794,0.0441 -0.17794,-0.44097 z m -1.87791,-0.68568 c 0.16612,-1.13523 -0.56057,-1.78887 -1.13093,-1.01725 -0.3979,0.53832 -0.4675,0.54053 -0.79253,0.0253 -0.52808,-0.83719 -1.54599,-0.29348 -1.54599,0.82579 0,0.79958 0.12375,0.91048 0.85913,0.76991 0.47253,-0.0903 1.06784,-0.032 1.32292,0.12952 0.69029,0.43724 1.15484,0.17266 1.2874,-0.73322 z m 11.53568,-4.2996 c 3.32886,-1.63425 6.62849,-4.40873 7.8598,-6.60887 0.44898,-0.80225 0.74618,-1.45863 0.66044,-1.45863 -0.0857,0 -0.71943,0.23547 -1.40821,0.52326 -1.42186,0.59409 -5.76178,1.77627 -7.74147,2.10876 -1.29691,0.21781 -1.32292,0.25299 -1.32292,1.78991 0,0.86225 -0.30225,2.36318 -0.67166,3.3354 -0.36942,0.97222 -0.59812,1.76767 -0.50823,1.76767 0.0899,0 1.4994,-0.65587 3.13225,-1.4575 z m -17.2003,-6.5 c 1.16532,-0.81622 1.10215,-3.26234 -0.11374,-4.40461 -1.14779,-1.0783 -1.80719,-0.72308 -2.91766,1.57172 -0.78867,1.62979 -0.85864,1.68019 -2.02847,1.46072 -0.75255,-0.14117 -1.21163,-0.0876 -1.21163,0.14147 0,0.20281 0.22079,0.36876 0.49064,0.36876 0.26985,0 1.18267,0.31401 2.02847,0.69781 1.86711,0.84722 2.72366,0.88468 3.75239,0.16413 z m 8.10419,-0.24135 c 1.21268,-0.43487 2.20486,-0.98713 2.20486,-1.22724 0,-0.33459 -0.20074,-0.34509 -0.85944,-0.045 -1.15164,0.52472 -1.82108,0.20999 -2.11766,-0.99558 -0.66302,-2.69504 -2.20936,-3.35429 -3.37676,-1.43961 -0.89371,1.46579 -0.89225,2.89625 0.004,3.79236 0.89692,0.89692 1.43798,0.88583 4.14514,-0.085 z M 44.806,57.996946 c -0.44064,-0.53092 -1.06156,-0.41785 -1.06156,0.19333 0,0.18258 0.33694,0.33196 0.74875,0.33196 0.6231,0 0.67559,-0.0882 0.31281,-0.52529 z m 29.05684,-0.10892 c 0.0957,-0.15478 0.0537,-0.47604 -0.0934,-0.71389 -0.19665,-0.31819 -0.438,-0.24382 -0.91334,0.28143 -0.62905,0.69509 -0.6266,0.71389 0.0933,0.71389 0.40668,0 0.81768,-0.12664 0.91334,-0.28143 z m -23.94479,-2.56536 c 0,-0.27222 -0.27781,-0.54844 -0.61736,-0.61383 -0.6081,-0.11711 -0.85949,0.63145 -0.37483,1.11612 0.36979,0.36978 0.99219,0.0547 0.99219,-0.50229 z m 18.87361,-0.17264 c 0,-0.51858 -0.75314,-0.69595 -1.17287,-0.27622 -0.31902,0.31902 0.47161,1.21797 0.86007,0.97789 0.17204,-0.10633 0.3128,-0.42208 0.3128,-0.70167 z"
       id="path3724" />
  </g>
</svg>
