<?xml version="1.0" encoding="UTF-8" standalone="no"?>
<svg
        width="30px"
        height="30px"
        viewBox="0 0 102.61205 100.91493"
        version="1.1"
        id="svg5"
        xml:space="preserve"
        xmlns="http://www.w3.org/2000/svg"
        xmlns:svg="http://www.w3.org/2000/svg"><defs
     id="defs2" /><g
        id="layer1"
        transform="translate(-40.318399,-59.149725)"><g
       id="g8"
       transform="matrix(0.26458333,0,0,0.26458333,-157.1147,-105.85457)"><g
         id="g170"
         transform="translate(-3.6806232,-16.562806)" /><path
        d="m 943.83095,1004.7241 c -6.56547,-0.9576 -13.52796,-4.2916 -20.5071,-9.81975 -3.35738,-2.6594 -9.55469,-9.0697 -12.76432,-13.2032 -4.82963,-6.2196 -8.67958,-12.2021 -13.0656,-20.3029 l -2.4256,-4.48 -0.36384,-10.88 c -0.71536,-21.39164 -1.79283,-32.64074 -4.35238,-45.44004 -2.1786,-10.8942 -5.01069,-19.4546 -9.48992,-28.6847 l -2.89463,-5.9647 1.78426,-5.7153 c 5.22125,-16.7248 7.3951,-31.1605 9.02851,-59.9553 0.29453,-5.192 0.61283,-9.656 0.70733,-9.92 0.0945,-0.264 0.22176,-2.784 0.28281,-5.6 0.14144,-6.5215 0.9482,-19.2517 1.56154,-24.64 0.58157,-5.1092 1.6783,-9.6101 3.57907,-14.6886 1.8,-4.8091 4.56928,-10.6379 5.68304,-11.96147 0.97437,-1.15798 1.17869,-1.12419 3.68973,0.61007 2.23965,1.5469 4.10707,2.2 6.2905,2.2 3.85219,0 6.3111,-2.1267 7.82736,-6.76978 1.02912,-3.15143 3.87065,-8.86167 5.49926,-11.05117 2.75776,-3.70749 6.51594,-5.85226 9.54317,-5.44621 4.23616,0.56819 8.99021,5.77696 11.24614,12.32186 1.34768,3.90989 1.5752,8.5905 0.56314,11.5853 -0.97069,2.8724 -2.32285,5.1371 -4.41927,7.4014 -3.45123,3.7278 -7.26048,4.7474 -13.60307,3.6414 -3.80275,-0.6632 -7.10755,-1.76 -13.47264,-4.4714 -6.2392,-2.6578 -10.72646,-4.1577 -13.39459,-4.4772 l -1.84,-0.2202 -0.005,1.383 c -0.004,1.0108 -0.0884,1.2538 -0.3151,0.903 -0.22183,-0.3433 -0.31159,0 -0.31511,1.2189 -0.003,1.0522 0.1169,1.6236 0.31511,1.5011 0.2008,-0.1241 0.32,0.5779 0.32,1.8847 0,9.5174 3.93843,21.3057 9.40115,28.1389 0.86899,1.087 1.26921,1.7021 0.88941,1.3668 -0.37981,-0.3353 -0.69056,-0.4739 -0.69056,-0.308 0,0.4468 3.15257,3.4717 3.38057,3.2437 0.10743,-0.1074 1.40653,0.5942 2.88688,1.5591 4.41552,2.8782 8.80711,4.6203 14.90375,5.912 2.85705,0.6054 4.3792,0.7053 11.1488,0.732 8.24595,0.032 9.2134,0.1835 10.05049,1.5696 0.58336,0.9659 -0.4647,1.3888 -4.04896,1.6337 -4.17632,0.2854 -14.24621,1.5276 -22.48153,2.7734 -16.86356,2.5508 -24.29991,4.4397 -26.81904,6.8121 -1.89453,1.7842 -2.18941,3.0204 -3.59789,15.082 -1.84048,15.7613 -4.97248,35.9804 -6.68151,43.1333 l -1.05446,4.4134 1.72029,3.1066 c 0.94614,1.7087 2.30115,4.6066 3.01107,6.4398 4.99642,12.9017 10.79638,40.001 12.19232,56.96654 0.41411,5.0327 0.28794,6.7962 -0.99738,13.9404 -1.18137,6.5665 -0.707,13.5565 1.26679,18.6666 2.67475,6.9248 7.31891,11.7835 15.51981,16.2368 2.83276,1.5383 4.7742,3.5033 8.03907,8.1366 5.4368,7.7156 11.36736,12.6684 20.84093,17.40475 2.332,1.1659 4.24,2.1908 4.24,2.2775 0,0.2511 -5.73264,0.107 -7.8129,-0.1964 z m 19.3329,-36.28585 c -1.3112,-1.32 -2.45958,-2.3931 -2.552,-2.3846 -0.0924,0.01 -0.744,0.8195 -1.448,1.8024 -0.704,0.9828 -1.7249,1.9996 -2.26864,2.2594 -0.87443,0.4178 -1.09661,0.4165 -1.9231,-0.011 -1.12122,-0.5798 -3.1608,-3.2943 -2.69264,-3.5836 0.4064,-0.2512 0.42665,-1.6617 0.0275,-1.9085 -0.36138,-0.2233 -0.78426,0.9708 -0.50423,1.4238 0.28499,0.4612 -1.44403,3.5106 -2.3135,4.0803 -0.60311,0.3952 -0.89408,0.4094 -1.68375,0.082 -0.92294,-0.3823 -2.47196,-1.8887 -3.60073,-3.5016 l -0.54656,-0.781 -2.37911,2.3069 c -2.18726,2.1208 -2.44176,2.2784 -3.15552,1.9531 -0.427,-0.1945 -1.33961,-1.0719 -2.028,-1.9496 -1.81785,-2.3178 -2.18608,-2.4447 -3.65961,-1.2605 -2.70003,2.1698 -3.64413,2.0585 -5.49037,-0.647 -1.29178,-1.893 -1.7529,-2.0997 -2.80582,-1.2576 -1.60928,1.287 -2.65984,1.6807 -4.46183,1.6722 -7.45584,-0.035 -15.1327,-9.4586 -14.30297,-17.5571 0.30697,-2.9964 1.62595,-7.2284 3.37168,-10.8184 1.78633,-3.6735 2.82342,-4.8733 3.77312,-4.3651 0.81494,0.4362 2.23564,3.1779 4.08595,7.8851 2.07622,5.282 2.77558,6.5682 4.33981,7.9814 1.46,1.319 4.95462,3.0605 6.13136,3.0554 0.39987,0 1.49734,-0.3617 2.43881,-0.8 0.94147,-0.4382 1.76467,-0.7968 1.82931,-0.7968 0.0646,0 0.84717,0.648 1.73892,1.44 0.89174,0.792 1.81001,1.44 2.04057,1.44 0.23059,0 1.25632,-0.288 2.27943,-0.64 2.72563,-0.9378 3.41516,-0.8508 4.72224,0.596 1.61366,1.7861 1.81072,1.8484 2.62374,0.8288 1.3632,-1.7097 5.88915,-1.3825 6.89578,0.4985 0.45305,0.8465 0.8959,0.8036 1.32038,-0.128 0.66781,-1.4657 3.34432,-1.9408 5.6072,-0.9953 1.65626,0.692 2.39744,0.6004 3.81366,-0.4711 1.49543,-1.1316 2.01312,-1.1697 4.457,-0.3289 2.48787,0.8559 2.73689,0.8245 4.01721,-0.5063 1.74528,-1.8141 2.01216,-1.8771 4.03373,-0.9516 2.05354,0.9402 2.75018,1.0113 3.30906,0.3379 0.2191,-0.264 0.81846,-0.48 1.33193,-0.48 3.25322,0 6.38851,-3.9872 8.43584,-10.728 1.07495,-3.5391 2.48659,-6.4088 3.39075,-6.8926 0.97332,-0.5209 1.9866,0.1097 3.19024,1.9854 2.38055,3.7098 4.11882,9.7294 4.12704,14.292 0.0122,6.7221 -2.87395,11.3429 -9.02387,14.448 -4.02861,2.034 -6.49606,2.0572 -9.33795,0.088 l -1.24995,-0.8662 -0.83203,1.098 c -1.50637,1.9879 -2.83802,3.2156 -3.48788,3.2156 -0.35193,0 -1.40646,-0.576 -2.34339,-1.28 -0.93693,-0.704 -1.88553,-1.28 -2.10803,-1.28 -0.2225,0 -1.29094,1.08 -2.37434,2.4 -1.08336,1.32 -2.06083,2.4 -2.17209,2.4 -0.11127,0 -1.27507,-1.08 -2.58627,-2.4 z m -18.9344,-7.52 c -0.005,-0.792 -0.12467,-1.8 -0.2656,-2.24 -0.1696,-0.5296 -0.25939,0.1734 -0.2656,2.08 -0.006,1.8815 0.0859,2.6581 0.2656,2.24 0.15126,-0.352 0.27078,-1.288 0.2656,-2.08 z m 16.6944,0 c 0,-1.4933 -0.13334,-2.56 -0.32,-2.56 -0.18666,0 -0.32,1.0667 -0.32,2.56 0,1.4933 0.13334,2.56 0.32,2.56 0.18666,0 0.32,-1.0667 0.32,-2.56 z m 9.28,0.3011 c 0,-1.2111 -0.12013,-1.8646 -0.32,-1.7411 -0.56752,0.3508 -0.37453,3.68 0.21334,3.68 0.0587,0 0.10666,-0.8725 0.10666,-1.9389 z m -35.52,0.5705 c 0,-0.049 0.14618,-1.2542 0.32483,-2.679 0.19936,-1.5899 0.2121,-2.8846 0.033,-3.3516 l -0.29187,-0.761 -0.35296,0.9008 c -0.44406,1.1334 -0.47078,5.9792 -0.033,5.9792 0.176,0 0.32,-0.04 0.32,-0.088 z m 35.52,-5.3516 c 0,-0.704 -0.144,-1.28 -0.32,-1.28 -0.176,0 -0.32,0.576 -0.32,1.28 0,0.704 0.144,1.28 0.32,1.28 0.176,0 0.32,-0.576 0.32,-1.28 z m -85.376,-4.864 c -0.2112,-0.2112 -0.384,-0.5204 -0.384,-0.687 0,-1.2878 -10.81459,-12.0731 -14.38266,-14.3437 -1.61913,-1.0303 -3.60707,-1.205 -4.73369,-0.4159 -0.78394,0.5491 -1.35917,2.2686 -1.36186,4.0706 0,0.7886 -0.13891,1.1726 -0.40179,1.12 -0.26157,-0.052 -0.38368,0.2799 -0.35283,0.96 0.0681,1.4997 -0.74813,1.3614 -2.99056,-0.5066 -3.50458,-2.9195 -11.91687,-12.2669 -16.17523,-17.97344 -6.7896,-9.0985 -12.15703,-20.822 -15.63837,-34.1571 -1.49875,-5.7409 -1.97357,-6.9776 -2.86157,-7.4528 -2.23286,-1.195 -8.09568,6.184 -11.51846,14.4974 -1.10138,2.6751 -1.30157,2.9614 -2.1304,3.0476 -0.63866,0.066 -1.33543,-0.2233 -2.30848,-0.96 -0.76653,-0.5803 -1.70352,-1.2286 -2.08218,-1.4406 -1.46586,-0.8207 -7.89862,-9.1499 -11.24608,-14.5615 -10.07686,-16.2904 -15.0999,-32.3479 -17.24656,-55.133 -0.41242,-4.3774 -1.25277,-19.9116 -1.35027,-24.96 -0.0483,-2.5005 -0.71171,-8.6877 -1.24832,-11.6423 -0.57911,-3.1884 -1.45591,-5.1896 -2.75143,-6.2797 -1.10441,-0.9293 -2.12521,-1.007 -3.55516,-0.2706 -2.5073,1.2913 -4.42052,3.4006 -8.37444,9.2326 -2.22192,3.2773 -3.30995,4.64 -3.70483,4.64 -0.43366,0 -0.66694,-17.7665 -0.33305,-25.3638 0.37366,-8.5024 0.94857,-14.1776 2.13052,-21.0318 4.42512,-25.66084 14.73165,-49.49034 29.06676,-67.20439 3.45097,-4.26442 9.9822,-10.76355 13.92905,-13.86061 6.57629,-5.16035 6.77776,-5.44969 5.29008,-7.59641 -2.85133,-4.1145 -11.01958,-6.63165 -18.62819,-5.74055 -3.74826,0.43898 -9.18259,2.16279 -11.95152,3.79111 -5.84118,3.43497 -8.60848,8.012 -8.60848,14.23808 0,2.59808 0.18128,3.6215 1.31968,7.45011 1.80365,6.06585 1.84925,8.27971 0.23968,11.63827 -1.78208,3.71859 -6.18704,9.6 -7.19002,9.6 -1.35632,0 -8.98764,-10.95482 -12.14902,-17.44 -3.51722,-7.2152 -4.94032,-12.7873 -4.94032,-19.34374 0,-8.84256 2.71718,-15.31386 8.88714,-21.16592 5.14544,-4.88032 11.9094,-7.93309 20.55286,-9.27604 3.86698,-0.60083 12.44989,-0.19497 17.2528,0.81581 8.92778,1.87888 18.19715,5.80451 26.81776,11.35741 l 4.55056,2.93123 4.56944,-2.84864 c 13.93165,-8.68505 29.0319,-15.24477 46.61933,-20.2519 10.17542,-2.89693 24.37987,-5.38042 28.22259,-4.93443 1.17917,0.13686 1.8913,0.089 2.03066,-0.13652 0.26969,-0.43635 4.22918,-0.46038 4.49686,-0.0272 0.10877,0.176 0.54077,0.32 0.96,0.32 0.41923,0 0.85123,-0.144 0.96,-0.32 0.27011,-0.43702 2.72,-0.40873 2.72,0.0314 0,0.23927 0.58771,0.2832 1.84173,0.13767 2.17069,-0.25194 5.80909,0.17958 12.35968,1.46592 8.15334,1.60109 15.3352,3.8535 20.42947,6.4072 1.00698,0.50477 2.19408,0.91779 2.63798,0.91779 0.44391,0 2.28404,-0.6639 4.08912,-1.47536 7.32855,-3.2944 18.54791,-6.24992 27.12202,-7.14474 1.848,-0.19286 3.96573,-0.4166 4.70608,-0.49724 0.74035,-0.0806 1.43283,-0.006 1.53888,0.16537 0.27306,0.44183 1.54736,0.38714 2.05104,-0.088 0.3392,-0.32 0.45334,-0.32 0.57066,0 0.1744,0.47562 1.88979,0.53878 2.17334,0.08 0.26474,-0.42838 4.2257,-0.41146 4.49187,0.0192 0.13101,0.212 0.82797,0.26381 1.85888,0.13818 3.358,-0.40922 15.1289,1.39264 24.3692,3.73043 15.5882,3.94374 31.9395,10.79721 47.9284,20.0887 3.6565,2.12493 6.7896,3.86349 6.9624,3.86349 0.1727,0 2.077,-1.10422 4.2316,-2.45386 10.8334,-6.7856 21.3035,-10.83001 31.7008,-12.2454 4.9893,-0.67917 13.099,-0.36973 16.9369,0.64627 2.2237,0.58867 1.572,0.98493 -4.1434,2.51913 -14.0055,3.75956 -31.4956,12.59613 -39.7927,20.10458 -4.0538,3.66848 -4.4084,5.76448 -1.7441,10.30909 2.3652,4.0344 2.1205,6.01398 -0.987,7.98473 -3.0731,1.94893 -7.8123,2.97133 -16.2929,3.51501 -10.4047,0.66701 -11.6154,0.70384 -11.828,0.35978 -0.2868,-0.4641 -3.7927,-0.43063 -4.264,0.0407 -0.2505,0.25053 -2.5894,0.46394 -6.864,0.62631 -22.4623,0.85315 -37.1531,2.50236 -48.13637,5.4038 -4.4783,1.18301 -7.27865,2.1776 -11.94758,4.2433 -4.52227,2.00083 -6.05334,2.16602 -11.39802,1.22973 -7.09558,-1.24304 -10.70924,-1.46339 -24.12198,-1.47091 -8.96093,-0.005 -13.89805,0.12208 -16,0.4119 -3.59184,0.49523 -10.76778,2.20662 -15.04,3.58685 -1.672,0.54019 -3.76,1.06163 -4.64,1.15878 -1.46813,0.16208 -1.78461,0.0641 -3.84,-1.18889 -3.38259,-2.06202 -12.82432,-6.63082 -15.36,-7.43261 -1.976,-0.6248 -2.93773,-0.70829 -8.16,-0.70829 -5.30106,0 -6.17091,0.078 -8.32,0.74611 -4.6703,1.45187 -8.86592,4.37664 -14.72982,10.26819 -7.06666,7.09997 -13.85437,16.82359 -15.04519,21.55271 -0.29958,1.18976 -0.27449,1.60374 0.14643,2.41773 1.85952,3.5959 9.7178,5.82803 26.58858,7.55251 2.64,0.26985 5.7129,0.58723 6.82867,0.70528 1.2304,0.13017 2.09325,0.38288 2.19274,0.64214 0.0902,0.23514 -0.28925,1.86745 -0.84333,3.62735 -1.68019,5.3371 -2.55683,11.4064 -3.21338,22.248 -0.18118,2.992 -0.4256,6.304 -0.54313,7.36 -0.11754,1.056 -0.2312,3.288 -0.25261,4.96 -0.11286,8.8267 -0.26486,11.2317 -0.69936,11.0649 -0.30858,-0.1184 -0.4296,0.1478 -0.4296,0.9451 0,0.6105 0.144,1.11 0.32,1.11 0.36342,0 0.44595,3.9274 0.09,4.2833 -0.12649,0.1266 -0.26281,2.733 -0.30294,5.792 -0.1311,9.9937 -1.55197,27.8818 -2.99968,37.7647 -1.5064,10.2836 -2.9744,16.6835 -6.37286,27.783 l -2.23604,7.303 2.04906,4.0891 c 7.38838,14.7443 12.03421,31.357 13.92266,49.7849 0.61212,5.9734 1.55472,24.30374 1.42336,27.68004 -0.0719,1.848 -0.13133,3.468 -0.13213,3.6 -0.003,0.3624 -0.46535,0.2881 -0.89741,-0.144 z m 107.10333,-85.46364 c -1.38787,-0.9288 -3.63491,-5.2891 -4.32487,-8.3924 -0.39075,-1.7574 -0.55552,-5.7214 -0.76483,-18.4 -0.14675,-8.888 -0.27827,-16.6568 -0.29222,-17.264 -0.0326,-1.4183 -0.40359,-0.9677 -1.09952,1.3358 -0.71959,2.3818 -2.27479,4.0882 -3.72589,4.0882 -3.23034,0 -5.76,-4.2341 -5.76,-9.6411 0,-2.8353 -0.30432,-3.6711 -0.80035,-2.1978 -0.6393,1.8986 -1.69991,2.3998 -5.06419,2.3928 -2.56957,-0.01 -3.14352,-0.1151 -4.60484,-0.88 -1.95513,-1.0235 -2.38483,-1.0628 -3.51593,-0.3217 -1.11728,0.7321 -4.95498,0.7162 -6.90531,-0.029 -2.12679,-0.8122 -2.81805,-2.9159 -2.15664,-6.5634 0.52022,-2.8688 1.60886,-5.1251 3.13712,-6.502 2.73209,-2.4613 3.9415,-2.5741 5.66313,-0.528 1.53168,1.8202 2.05523,3.4923 2.15552,6.8837 0.0628,2.1228 0.21706,3.1359 0.49149,3.2269 0.47818,0.1586 0.53661,-0.9875 0.0926,-1.8171 -0.38531,-0.7199 1.34054,-4.4757 2.84301,-6.1869 1.41517,-1.6118 3.48819,-2.3707 5.13129,-1.8784 2.23796,0.6705 3.26244,2.4853 3.72692,6.6017 l 0.21664,1.92 0.53747,-2.08 c 0.77568,-3.0018 1.39235,-4.2559 2.89331,-5.8843 1.46755,-1.5921 3.02346,-2.2753 4.46202,-1.9593 1.43696,0.3156 3.12643,2.4087 3.74758,4.6428 0.29373,1.0565 0.65443,1.9208 0.8016,1.9208 0.14714,0 0.26752,-0.6987 0.26752,-1.5526 0,-1.9267 0.9255,-3.4033 2.72,-4.3395 1.12614,-0.5876 1.83776,-0.6679 5.92,-0.6679 5.58289,0 7.21449,0.4556 8.38729,2.3416 0.7071,1.1373 0.7322,1.4244 0.7175,8.2184 -0.033,15.0518 -2.259,33.7975 -5.149,43.3521 -1.5665,5.1789 -4.31035,9.4317 -6.74552,10.4552 -1.3927,0.5853 -1.73837,0.5514 -3.00294,-0.2949 z m -83.96733,-0.2194 c -1.37651,-0.5732 -3.30742,-3.261 -4.57382,-6.3668 -1.05853,-2.596 -2.49959,-8.8745 -3.38922,-14.7662 -1.36272,-9.0252 -2.16698,-18.3944 -1.67382,-19.4996 0.19459,-0.4361 0.16937,-0.9462 -0.073,-1.4782 -0.48166,-1.0571 -0.47011,-2.2301 0.0298,-3.0339 0.33104,-0.5321 0.30346,-0.8117 -0.16,-1.6216 -0.48547,-0.8483 -0.56,-1.8913 -0.56,-7.8366 v -6.858 l 1.84,-1.1772 c 2.64327,-1.6909 4.55939,-2.3349 6.94768,-2.3349 6.5144,0 9.97418,2.5154 10.1232,7.36 l 0.0345,1.12 0.32224,-1.12 c 0.17724,-0.616 0.5238,-1.8664 0.77011,-2.7787 0.2463,-0.9123 0.81936,-2.1003 1.2735,-2.64 1.42925,-1.6986 4.02528,-1.2248 6.63738,1.2113 1.29545,1.2082 1.85149,2.4377 1.91558,4.2357 0.0307,0.8617 0.12995,1.5678 0.22051,1.5692 0.0906,0 0.62855,-0.9931 1.19546,-2.2099 1.41475,-3.0366 2.84096,-4.5076 4.3704,-4.5076 2.47021,0 5.0832,2.1426 6.10544,5.0064 0.30499,0.8545 0.63382,1.7696 0.73072,2.0336 0.0969,0.264 0.2911,-0.3421 0.43162,-1.347 0.4271,-3.0549 2.23827,-5.6887 4.26089,-6.1964 1.89293,-0.4751 5.21127,2.1231 6.29415,4.9283 0.98064,2.5402 1.03932,6.7859 0.11577,8.3751 -0.99494,1.712 -2.40336,2.291 -5.29405,2.1763 -2.06841,-0.082 -2.59456,-0.2257 -3.57865,-0.9763 -1.37149,-1.0461 -1.86499,-1.0924 -2.63034,-0.2467 -0.85197,0.9414 -3.79424,1.9267 -5.75353,1.9267 -2.14637,0 -3.39261,-0.9279 -4.20244,-3.1291 -0.30576,-0.831 -0.65609,-1.6277 -0.77856,-1.7705 -0.12246,-0.1427 -0.32774,1.5853 -0.45619,3.84 -0.26733,4.6922 -0.61997,5.7774 -2.51049,7.7253 -2.41818,2.4915 -3.33092,2.6692 -4.92932,0.9596 -0.94889,-1.0149 -2.64646,-4.4115 -2.65148,-5.3053 -0.003,-0.396 -0.14807,-0.72 -0.32407,-0.72 -0.176,0 -0.32,0.4972 -0.32,1.1049 0,0.6078 -0.16518,1.4675 -0.36704,1.9106 -0.25757,0.5653 -0.26685,0.9277 -0.031,1.215 0.49623,0.6049 0.89024,8.7454 0.43683,9.0256 -0.47075,0.2909 -0.47577,4.5538 -0.006,4.8443 0.7458,0.4609 -0.44467,13.6052 -1.65011,18.2196 -0.36784,1.408 -1.10445,3.4198 -1.63693,4.4708 -2.06816,4.0817 -4.21132,5.6176 -6.50595,4.6622 z m 117.27665,-70.8843 c 0.1655,-0.4351 1.4671,-3.2557 2.8925,-6.268 5.2069,-11.0035 6.5459,-16.5622 7.6612,-31.8032 0.1796,-2.4543 0.4353,-4.5563 0.5681,-4.6711 0.1328,-0.1148 2.5455,-0.6054 5.3616,-1.0904 24.0394,-4.1401 38.1034,-8.1163 52.9116,-14.9591 3.4341,-1.5869 6.4095,-2.77747 6.6809,-2.67334 0.8239,0.31614 0.2681,2.22894 -1.955,6.72844 -3.6678,7.4234 -8.4229,13.8025 -15.8775,21.2998 -5.677,5.7095 -10.0906,9.3468 -16.48,13.5812 -7.25,4.8046 -20.3995,11.8785 -29.7323,15.9946 -4.0838,1.8011 -11.4595,4.6524 -12.0349,4.6524 -0.1817,0 -0.1802,-0.3073 0,-0.7913 z m -55.67873,-46.8677 c -2.50829,-0.763 -6.49005,-4.3391 -8.23802,-7.3987 -3.60153,-6.3042 -2.13619,-16.09192 3.45501,-23.07759 3.07975,-3.8478 5.79066,-5.52102 8.94509,-5.52102 2.57824,0 4.14794,0.75702 6.1217,2.95235 1.94966,2.16848 3.17107,4.84346 5.08742,11.14179 1.75619,5.77194 2.82538,8.12907 4.05171,8.93257 0.42077,0.2757 1.99363,0.6409 3.4953,0.8115 4.17619,0.4745 4.61814,0.2969 10.02152,-4.02883 1.9176,-1.53511 2.3266,-1.13207 2.5124,2.47513 0.1892,3.6745 -0.1016,4.0033 -4.8658,5.5038 -2.01084,0.6333 -6.51094,2.3656 -10.00019,3.8495 -7.19356,3.0593 -10.09344,3.9177 -14.66406,4.3407 -3.7488,0.347 -4.83171,0.3505 -5.92208,0.019 z M 869.24385,723.49793 c -3.55162,-0.63033 -9.56173,-2.13107 -10.46029,-2.61197 -0.31885,-0.17065 -0.57654,-0.48518 -0.57267,-0.699 0.0128,-0.70132 1.18013,-2.99047 2.61898,-5.13527 l 1.41302,-2.10633 3.18048,3.21897 c 1.74928,1.77043 4.03386,3.93923 5.0769,4.81955 1.20012,1.01293 1.92643,1.88215 1.97817,2.36746 0.045,0.42179 0.0556,0.7551 0.0237,0.7407 -0.032,-0.0144 -1.49817,-0.28176 -3.25817,-0.59411 z m 166.88005,-2.18137 c 0,-0.082 1.7669,-1.98314 3.9265,-4.22474 2.1595,-2.2416 4.4275,-4.81398 5.04,-5.71638 0.6124,-0.9024 1.2743,-1.64442 1.4709,-1.64896 0.8671,-0.0202 4.1088,6.08563 3.827,7.20812 -0.3538,1.40986 -5.1413,3.13728 -11.3045,4.07882 -1.628,0.2487 -2.96,0.38512 -2.9599,0.30314 z m 5.8399,-5.03834 c 0.3191,-0.59222 0.2991,-0.60534 -0.2676,-0.176 -1.4449,1.09482 -2.3368,2.05472 -2.1659,2.3312 0.206,0.33328 1.9019,-1.16874 2.4335,-2.1552 z M 894.24779,705.0932 c -1.55943,-0.56061 -2.84672,-1.78448 -3.5745,-3.3984 -0.54218,-1.20234 -0.54218,-1.31082 0,-2.51316 1.39613,-3.09606 3.60531,-3.872 6.86243,-2.4103 2.45562,1.10202 3.54813,2.32262 3.54813,3.9641 0,3.03648 -3.7903,5.45267 -6.83606,4.35776 z m 116.98591,-0.38717 c -1.9619,-0.96698 -2.9959,-3.27181 -2.1776,-4.85418 0.8138,-1.57373 4.5153,-3.58809 6.548,-3.56345 2.4892,0.0301 3.8663,4.03347 2.2815,6.63273 -1.3173,2.16055 -4.278,2.95498 -6.6519,1.7849 z"
        style="fill:#FFFFFF;stroke-width:0.32"
        id="path334" /></g><path
        style="fill:#FFFFFF;stroke-width:1.09301"
        d="m 283.88933,542.40545 c -5.36172,-5.34637 -7.56538,-6.83131 -10.13766,-6.83131 -2.77752,0 -3.38833,0.50802 -3.94253,3.27903 -0.3607,1.80346 -0.98002,3.27902 -1.37627,3.27902 -1.11684,0 -11.30695,-10.80555 -16.44873,-17.44217 -6.261,-8.08122 -12.42475,-20.65266 -16.02841,-32.69114 -2.18256,-7.29113 -3.46977,-9.98215 -4.77479,-9.98215 -2.52693,0 -6.93663,5.03294 -10.29333,11.74815 -2.64743,5.29628 -3.04103,5.63185 -5.12799,4.37203 -3.57371,-2.15733 -13.89812,-16.92755 -18.52615,-26.50376 -7.80321,-16.1462 -10.64283,-30.66293 -13.01688,-66.54524 -1.11712,-16.88464 -2.47405,-21.45962 -6.35466,-21.42521 -2.8178,0.025 -4.14944,1.15127 -9.09116,7.68913 l -4.50247,5.95674 0.57873,-20.22065 c 0.64988,-22.7068 2.71699,-34.79909 8.84047,-51.71548 8.15933,-22.5405 20.62071,-41.66257 34.48186,-52.91263 7.88807,-6.40217 8.4796,-7.52733 5.58,-10.61381 -6.58597,-7.01044 -25.59368,-6.23644 -33.74061,1.37393 -5.20245,4.85982 -6.44513,10.76571 -4.2179,20.04581 l 1.84455,7.68564 -2.92725,5.37832 c -4.69408,8.62456 -4.95482,8.6112 -11.0945,-0.56839 -7.18903,-10.74849 -10.22173,-18.98179 -10.30421,-27.97424 -0.0862,-9.39828 2.42235,-15.19013 9.23004,-21.31084 9.37754,-8.43121 22.8886,-11.15516 37.84355,-7.6296 6.80061,1.60322 18.88073,6.87572 26.41622,11.52966 l 3.82553,2.36265 8.74407,-5.20941 c 4.80924,-2.86518 13.86506,-7.36313 20.12405,-9.99545 34.93585,-14.69283 64.62532,-16.96384 90.95323,-6.95719 6.47848,2.46232 9.92388,2.77605 12.91383,1.17588 1.08733,-0.58192 6.321,-2.31689 11.63039,-3.85549 28.67946,-8.31098 64.86584,-1.42734 101.81274,19.36758 l 8.99548,5.06294 11.77168,-5.95253 c 6.47444,-3.27389 14.70318,-6.68151 18.28613,-7.57248 6.72369,-1.67199 19.32148,-2.19841 20.65671,-0.86317 0.41623,0.41623 -3.09822,2.0647 -7.80988,3.66328 -9.92363,3.36689 -23.66172,10.35552 -31.08891,15.81508 -6.07549,4.46597 -7.34958,7.93881 -4.84182,13.19764 3.87176,8.11917 -1.05152,10.01072 -29.7299,11.42238 -40.75482,2.00612 -54.76234,3.94062 -68.7228,9.49094 -6.44125,2.56088 -7.3035,2.64337 -15.74916,1.50676 -15.84696,-2.13267 -33.91845,-1.5503 -46.50305,1.49859 l -11.13708,2.69821 -8.74422,-4.43679 c -18.59518,-9.43513 -31.12504,-6.40068 -45.67162,11.06064 -3.25526,3.90751 -7.18745,9.68869 -8.73823,12.84707 -2.42753,4.944 -2.6115,5.99345 -1.32302,7.54712 2.47975,2.9901 7.57056,4.52692 21.25612,6.4168 7.1669,0.9897 13.14594,1.91241 13.28676,2.05046 0.14081,0.13804 -0.46803,3.72356 -1.35298,7.96782 -0.88496,4.24425 -2.364,22.4096 -3.28677,40.36745 -2.33435,45.42863 -3.76713,56.67694 -9.77689,76.75543 l -2.65539,8.8716 4.41062,9.412 c 2.42583,5.1766 5.81953,14.99075 7.54157,21.80923 3.1998,12.66985 5.85935,36.04233 5.21957,45.87038 l -0.35576,5.46504 z"
        id="path357"
        transform="scale(0.26458333)" /></g></svg>
