<?xml version="1.0" standalone="no"?>
<!DOCTYPE svg PUBLIC "-//W3C//DTD SVG 20010904//EN"
 "http://www.w3.org/TR/2001/REC-SVG-20010904/DTD/svg10.dtd">
<svg version="1.0" xmlns="http://www.w3.org/2000/svg"
 width="272.000000pt" height="272.000000pt" viewBox="0 0 272.000000 272.000000"
 preserveAspectRatio="xMidYMid meet">
<metadata>
Created by potrace 1.14, written by Peter Selinger 2001-2017
</metadata>
<g transform="translate(0.000000,272.000000) scale(0.100000,-0.100000)"
fill="#000000" stroke="none">
<path d="M974 2561 c-82 -13 -151 -39 -266 -100 -99 -52 -110 -55 -130 -42
-143 90 -321 116 -423 63 -102 -53 -168 -180 -136 -264 5 -13 41 -68 80 -122
83 -116 84 -126 51 -291 -27 -132 -37 -373 -18 -435 20 -65 49 -67 85 -6 30
49 43 57 43 27 0 -37 51 -273 81 -373 33 -112 84 -219 124 -261 34 -36 93 -35
111 1 13 26 20 20 52 -43 49 -97 196 -225 259 -225 51 0 68 -13 125 -98 66
-98 149 -181 213 -212 74 -36 188 -35 267 2 70 33 145 102 206 188 68 97 92
120 124 120 41 0 97 31 161 90 48 44 71 74 135 179 l14 23 12 -23 c8 -18 21
-25 47 -27 30 -3 42 3 69 30 68 67 137 269 186 546 10 56 21 102 24 102 3 0
18 -21 35 -45 36 -54 48 -60 72 -33 15 17 19 41 22 140 3 128 -8 248 -39 399
-22 106 -22 105 60 218 92 128 108 186 71 266 -26 58 -99 121 -162 139 -107
32 -237 13 -340 -49 -31 -19 -61 -35 -66 -35 -5 0 -56 24 -113 54 -162 84
-228 101 -390 101 -124 0 -140 -2 -197 -27 l-63 -27 -62 26 c-52 21 -82 27
-168 29 -58 1 -128 -1 -156 -5z m817 -92 c54 -13 131 -42 209 -80 l124 -60 76
35 c52 25 101 39 155 46 43 5 80 8 82 6 2 -2 -18 -11 -44 -21 -80 -30 -160
-73 -198 -106 -33 -30 -35 -35 -29 -74 6 -42 5 -42 -28 -48 -18 -4 -85 -11
-148 -17 -253 -23 -317 -32 -370 -47 -36 -10 -124 -18 -250 -22 -108 -4 -201
-11 -208 -15 -6 -4 -41 5 -76 19 -97 39 -127 41 -180 15 -51 -24 -117 -94
-148 -154 l-20 -40 21 -17 c12 -10 47 -23 79 -29 31 -6 70 -13 86 -17 27 -5
28 -6 22 -57 -3 -28 -10 -125 -16 -216 -14 -225 -27 -336 -50 -439 l-19 -89
30 -83 c41 -111 59 -211 59 -322 l0 -91 -38 37 c-40 39 -60 45 -93 25 -18 -12
-24 -9 -55 27 -60 69 -113 169 -157 298 -10 28 -23 20 -57 -33 -18 -28 -35
-50 -39 -50 -12 0 -56 51 -84 97 -66 105 -100 237 -112 428 -6 104 -20 165
-36 165 -5 0 -28 -19 -49 -42 l-40 -43 0 30 c0 78 22 259 40 330 32 127 96
246 189 350 45 50 81 93 81 97 0 31 -135 41 -187 14 -41 -21 -47 -37 -48 -133
0 -70 -3 -86 -21 -104 l-22 -21 -31 46 c-110 159 -67 309 99 345 66 14 145 -1
233 -46 l70 -35 112 56 c202 101 415 134 567 86 76 -24 102 -25 159 -4 102 36
209 37 360 3z m-44 -425 c8 -21 -13 -42 -28 -27 -13 13 -5 43 11 43 6 0 13 -7
17 -16z m-709 -11 c5 -17 -26 -29 -40 -15 -6 6 -7 15 -3 22 9 14 37 9 43 -7z
m906 -78 c3 -9 -3 -19 -15 -25 -29 -16 -44 -2 -23 21 21 23 30 24 38 4z m-660
-26 c28 -33 36 -102 16 -138 -15 -29 -62 -44 -101 -33 -127 38 -177 71 -97 64
36 -3 38 -2 64 50 48 97 74 110 118 57z m239 13 c10 -10 24 -40 33 -65 18 -52
41 -65 87 -48 41 16 33 -5 -11 -28 -62 -32 -149 -53 -169 -43 -41 23 -56 50
-51 96 10 85 71 133 111 88z m-675 -20 c3 -9 -2 -13 -14 -10 -9 1 -19 9 -22
16 -3 9 2 13 14 10 9 -1 19 -9 22 -16z m1367 -167 c-42 -61 -111 -124 -201
-181 -75 -49 -182 -100 -190 -91 -3 3 1 28 10 54 9 26 20 76 23 111 3 34 11
66 17 69 6 4 68 22 138 39 70 18 151 41 180 52 31 12 55 16 57 10 2 -5 -13
-34 -34 -63z m-1169 -52 c20 -74 55 -128 96 -149 17 -9 68 -22 112 -29 90 -13
88 -15 -69 -39 -150 -22 -150 -23 -169 -103 -8 -37 -22 -122 -31 -189 l-17
-121 25 -79 c43 -136 59 -232 61 -374 2 -87 7 -145 16 -162 7 -15 67 -76 133
-135 66 -59 115 -109 108 -111 -45 -15 -211 135 -264 239 -22 44 -27 68 -27
124 0 101 -25 254 -61 373 l-31 103 16 82 c16 83 25 166 51 450 18 200 24 214
51 120z m86 -292 c11 -18 13 -18 24 -3 10 13 16 14 36 5 13 -6 36 -9 50 -6 14
3 29 0 33 -7 5 -8 12 -6 26 6 24 22 49 4 49 -37 0 -22 -5 -29 -20 -29 -11 0
-23 7 -27 15 -5 13 -8 13 -20 -5 -10 -14 -21 -18 -37 -14 -17 4 -25 -1 -34
-20 -6 -15 -20 -26 -30 -26 -17 0 -21 -12 -30 -92 -13 -114 -25 -148 -51 -148
-26 0 -46 67 -61 203 -14 136 -3 177 51 177 18 0 34 -8 41 -19z m538 9 c28
-17 10 -252 -26 -338 -11 -26 -19 -33 -36 -30 -26 3 -35 32 -37 114 -2 80 -11
114 -31 114 -21 0 -30 19 -30 63 0 45 13 60 62 73 56 15 80 16 98 4z m-248
-16 c14 -14 20 -14 33 -4 21 17 45 5 45 -22 0 -41 -11 -47 -73 -41 -54 5 -57
7 -57 32 0 24 15 51 29 51 2 0 13 -7 23 -16z m-272 -824 c26 -51 41 -58 147
-69 48 -5 96 -13 106 -16 9 -4 17 -3 17 3 0 5 21 13 46 17 69 10 91 24 108 66
9 22 20 39 26 39 34 0 42 -118 10 -150 -21 -21 -80 -28 -80 -10 0 6 -11 3 -24
-6 -15 -9 -40 -14 -60 -13 -20 2 -41 -2 -48 -9 -8 -8 -15 -9 -25 -1 -9 8 -17
8 -27 0 -10 -8 -16 -9 -21 -1 -3 5 -17 7 -30 4 -16 -4 -26 0 -34 13 -9 15 -12
16 -20 3 -8 -11 -13 -12 -22 -3 -6 6 -27 9 -49 6 -53 -7 -80 21 -80 83 0 47
13 84 30 84 5 0 19 -18 30 -40z"/>
<path d="M1571 1334 c0 -11 3 -14 6 -6 3 7 2 16 -1 19 -3 4 -6 -2 -5 -13z"/>
</g>
</svg>
